<svg width="295" height="61" viewBox="0 0 295 61" fill="none" xmlns="http://www.w3.org/2000/svg">
<g clip-path="url(#clip0_29_258)">
<path d="M131.88 27.3877C131.75 27.2314 131.489 27.0881 131.098 26.9578C130.734 26.8275 130.356 26.7624 129.965 26.7624C129.34 26.7624 128.779 26.9057 128.284 27.1923C127.789 27.4789 127.372 27.8698 127.034 28.3648C126.695 28.8338 126.434 29.4071 126.252 30.0845C126.07 30.7359 125.978 31.4394 125.978 32.195V36.4943C125.978 38.24 125.978 39.5819 125.978 40.5199C126.005 41.4319 126.057 42.1745 126.135 42.7477C125.614 42.6956 125.093 42.6696 124.571 42.6696C123.998 42.6696 123.451 42.6956 122.93 42.7477C123.008 41.8618 123.047 40.6632 123.047 39.152C123.073 37.6147 123.086 35.7387 123.086 33.5239V32.2732C123.086 31.257 123.073 30.0845 123.047 28.7557C123.047 27.4268 123.008 25.9025 122.93 24.1828C123.217 24.2349 123.49 24.2871 123.751 24.3392C124.011 24.3652 124.285 24.3783 124.571 24.3783C124.806 24.3783 125.053 24.3652 125.314 24.3392C125.575 24.2871 125.848 24.2349 126.135 24.1828C126.031 25.1208 125.965 25.8634 125.939 26.4106C125.939 26.9578 125.939 27.4789 125.939 27.974L126.018 28.0131C127.555 25.199 129.275 23.792 131.177 23.792C131.411 23.792 131.607 23.805 131.763 23.8311C131.945 23.8571 132.167 23.9223 132.427 24.0265C132.297 24.3392 132.219 24.8212 132.193 25.4726C132.167 26.0979 132.154 26.6712 132.154 27.1923L131.88 27.3877Z" fill="#F0EEE9"/>
<path d="M112.377 25.0427C111.413 25.0427 110.592 25.2642 109.915 25.7071C109.264 26.1501 108.716 26.7103 108.273 27.3877C107.857 28.0391 107.531 28.7687 107.296 29.5764C107.088 30.3581 106.958 31.1007 106.906 31.8042C107.713 31.8303 108.547 31.8563 109.407 31.8824C110.293 31.9084 111.153 31.9215 111.986 31.9215C112.846 31.9215 113.719 31.9084 114.605 31.8824C115.491 31.8563 116.351 31.8303 117.185 31.8042C117.185 31.1007 117.119 30.3581 116.989 29.5764C116.885 28.7947 116.65 28.0652 116.286 27.3877C115.947 26.7103 115.465 26.1501 114.84 25.7071C114.214 25.2642 113.393 25.0427 112.377 25.0427ZM103.349 34.0711C103.349 30.8662 104.104 28.3518 105.616 26.5279C107.153 24.704 109.381 23.792 112.299 23.792C113.68 23.792 114.866 24.0135 115.856 24.4564C116.872 24.8733 117.719 25.4465 118.396 26.1761C119.074 26.8796 119.569 27.7134 119.881 28.6775C120.22 29.6416 120.389 30.6708 120.389 31.7651C120.389 32.0257 120.376 32.2862 120.35 32.5468C120.35 32.7813 120.337 33.0288 120.311 33.2894C118.904 33.2633 117.51 33.2373 116.129 33.2112C114.748 33.1852 113.354 33.1721 111.947 33.1721C111.088 33.1721 110.228 33.1852 109.368 33.2112C108.534 33.2373 107.687 33.2633 106.827 33.2894C106.801 33.4197 106.788 33.6151 106.788 33.8757V34.3837C106.788 35.3999 106.932 36.351 107.218 37.2369C107.531 38.1228 107.974 38.8914 108.547 39.5428C109.12 40.1682 109.824 40.6763 110.658 41.0671C111.491 41.4319 112.455 41.6143 113.55 41.6143C114.071 41.6143 114.605 41.5491 115.152 41.4189C115.699 41.2625 116.234 41.0671 116.755 40.8326C117.276 40.572 117.758 40.2724 118.201 39.9337C118.67 39.5949 119.074 39.2302 119.412 38.8393L119.608 38.9566L119.373 40.8717C118.592 41.497 117.615 42.0312 116.442 42.4741C115.296 42.9171 114.097 43.1386 112.846 43.1386C111.439 43.1386 110.149 42.9301 108.977 42.5132C107.831 42.0703 106.827 41.4449 105.968 40.6372C105.134 39.8034 104.482 38.8263 104.013 37.7059C103.57 36.5855 103.349 35.3739 103.349 34.0711Z" fill="#F0EEE9"/>
<path d="M99.8315 46.8906C99.8315 45.3273 99.3755 44.2329 98.4635 43.6076C97.5516 42.9822 96.0403 42.6696 93.9298 42.6696C91.9756 42.6696 90.4644 42.9822 89.3961 43.6076C88.3278 44.259 87.7936 45.4185 87.7936 47.086C87.7936 47.9719 87.9369 48.7276 88.2235 49.3529C88.5362 49.9783 88.9401 50.4863 89.4351 50.8772C89.9563 51.268 90.5686 51.5546 91.2721 51.737C91.9756 51.9194 92.7312 52.0106 93.539 52.0106C94.3206 52.0106 95.0893 51.9064 95.8449 51.698C96.6005 51.4895 97.265 51.1768 97.8382 50.7599C98.4375 50.343 98.9195 49.8089 99.2843 49.1575C99.6491 48.5322 99.8315 47.7765 99.8315 46.8906ZM97.7209 29.9673C97.7209 28.3257 97.3301 27.075 96.5484 26.2152C95.7667 25.3554 94.7375 24.9254 93.4608 24.9254C92.0538 24.9254 90.9594 25.4075 90.1777 26.3715C89.3961 27.3095 89.0052 28.5733 89.0052 30.1627C89.0052 31.8042 89.357 33.107 90.0605 34.0711C90.7901 35.0091 91.9105 35.4781 93.4217 35.4781C94.1773 35.4781 94.8157 35.3348 95.3368 35.0482C95.884 34.7355 96.3269 34.3316 96.6657 33.8366C97.0305 33.3155 97.291 32.7292 97.4474 32.0778C97.6298 31.4003 97.7209 30.6968 97.7209 29.9673ZM85.9567 30.1627C85.9567 29.0683 86.1521 28.1303 86.5429 27.3486C86.9338 26.5409 87.4679 25.8765 88.1454 25.3554C88.8489 24.8342 89.6436 24.4434 90.5295 24.1828C91.4415 23.9223 92.4055 23.792 93.4217 23.792C93.9168 23.792 94.3858 23.805 94.8287 23.8311C95.2977 23.8571 95.884 23.8962 96.5875 23.9483C97.1868 24.0004 97.7209 24.0395 98.19 24.0656C98.659 24.0916 99.0368 24.1047 99.3234 24.1047C100.783 24.1047 101.838 24.0395 102.489 23.9092C102.463 24.0395 102.437 24.1828 102.411 24.3392C102.411 24.4694 102.411 24.5997 102.411 24.73C102.411 24.8603 102.411 25.0036 102.411 25.1599C102.437 25.2902 102.463 25.4205 102.489 25.5508C101.734 25.4987 100.991 25.4465 100.261 25.3944C99.5579 25.3163 98.8544 25.2642 98.1509 25.2381L98.0727 25.3163C98.8804 25.7592 99.5318 26.4497 100.027 27.3877C100.522 28.2997 100.769 29.2507 100.769 30.2408C100.769 32.195 100.105 33.7323 98.7762 34.8528C97.4734 35.9471 95.7146 36.4943 93.4999 36.4943C93.1351 36.4943 92.7703 36.4813 92.4055 36.4552C92.0668 36.4291 91.715 36.4161 91.3503 36.4161C90.8812 36.4161 90.4383 36.5855 90.0214 36.9242C89.6306 37.2629 89.4351 37.6929 89.4351 38.214C89.4351 38.8914 89.5915 39.3865 89.9042 39.6992C90.2429 40.0118 90.8552 40.1812 91.7411 40.2073C92.4707 40.2333 93.1872 40.2594 93.8907 40.2854C94.5942 40.2854 95.3108 40.2985 96.0403 40.3245C97.2389 40.3506 98.2551 40.4939 99.0889 40.7544C99.9487 41.015 100.639 41.3668 101.16 41.8097C101.708 42.2527 102.098 42.7607 102.333 43.334C102.593 43.9072 102.724 44.5326 102.724 45.21C102.724 46.122 102.541 47.047 102.177 47.985C101.838 48.923 101.291 49.7698 100.535 50.5254C99.8054 51.2811 98.8544 51.9064 97.6819 52.4015C96.5093 52.8965 95.1023 53.1441 93.4608 53.1441C90.9334 53.1441 88.9401 52.636 87.4809 51.6198C86.0218 50.6297 85.2922 49.2617 85.2922 47.516C85.2922 46.8385 85.4095 46.2132 85.644 45.6399C85.9046 45.0667 86.2303 44.5586 86.6211 44.1157C87.0119 43.6727 87.4549 43.321 87.95 43.0604C88.445 42.7998 88.9531 42.6044 89.4742 42.4741V42.396C88.6665 42.1615 88.0542 41.7706 87.6373 41.2234C87.2204 40.6763 87.0119 40.0249 87.0119 39.2692C87.0119 38.8263 87.0901 38.4224 87.2464 38.0576C87.4288 37.6929 87.6503 37.3672 87.9109 37.0805C88.1714 36.7939 88.4711 36.5594 88.8098 36.377C89.1485 36.1946 89.4742 36.0774 89.7869 36.0253V35.9471C88.5883 35.426 87.6503 34.6964 86.9729 33.7584C86.2954 32.7943 85.9567 31.5958 85.9567 30.1627Z" fill="#F0EEE9"/>
<path d="M78.1272 17.382C78.1272 16.8348 78.3226 16.3658 78.7135 15.9749C79.1043 15.5841 79.5733 15.3887 80.1205 15.3887C80.6677 15.3887 81.1367 15.5841 81.5275 15.9749C81.9183 16.3658 82.1138 16.8348 82.1138 17.382C82.1138 17.9291 81.9183 18.3981 81.5275 18.789C81.1367 19.1798 80.6677 19.3752 80.1205 19.3752C79.5733 19.3752 79.1043 19.1798 78.7135 18.789C78.3226 18.3981 78.1272 17.9291 78.1272 17.382ZM78.6744 31.4913C78.6744 30.3188 78.6483 29.0941 78.5962 27.8174C78.5701 26.5146 78.492 25.303 78.3617 24.1826C79.0913 24.3128 79.6775 24.378 80.1205 24.378C80.5634 24.378 81.1497 24.3128 81.8793 24.1826C81.749 25.303 81.6578 26.5146 81.6057 27.8174C81.5796 29.0941 81.5666 30.3188 81.5666 31.4913V35.556C81.5666 36.7285 81.5796 37.9662 81.6057 39.269C81.6578 40.5457 81.749 41.7052 81.8793 42.7475C81.28 42.6953 80.6937 42.6693 80.1205 42.6693C79.5472 42.6693 78.961 42.6953 78.3617 42.7475C78.492 41.7052 78.5701 40.5457 78.5962 39.269C78.6483 37.9662 78.6744 36.7285 78.6744 35.556V31.4913Z" fill="#F0EEE9"/>
<path d="M58.0381 42.3176C59.1585 40.9627 60.305 39.5166 61.4775 37.9793C62.6761 36.442 63.8355 34.9307 64.956 33.4455C66.0764 31.9603 67.1186 30.5533 68.0827 29.2244C69.0728 27.8956 69.9196 26.7622 70.6231 25.8241C70.4407 25.8241 69.9196 25.8372 69.0598 25.8632C68.226 25.8893 67.2619 25.9414 66.1676 26.0196C65.0732 26.0717 63.9528 26.1368 62.8063 26.215C61.6859 26.2671 60.7609 26.3322 60.0314 26.4104C60.1095 26.0456 60.1486 25.6808 60.1486 25.3161C60.1486 24.9773 60.1095 24.5995 60.0314 24.1826C60.8652 24.2608 62.0898 24.3129 63.7053 24.339C65.3207 24.365 67.3531 24.378 69.8024 24.378C70.3495 24.378 70.8446 24.378 71.2876 24.378C71.7566 24.378 72.1865 24.365 72.5773 24.339C72.9682 24.3129 73.346 24.2868 73.7108 24.2608C74.1016 24.2347 74.5055 24.2087 74.9224 24.1826V24.7689C73.8801 26.1238 72.7337 27.622 71.483 29.2635C70.2583 30.879 69.0598 32.4684 67.8872 34.0318C66.7147 35.5691 65.6464 36.9891 64.6824 38.2919C63.7183 39.5687 62.9887 40.5458 62.4937 41.2232C63.562 41.2232 64.5391 41.2232 65.425 41.2232C66.3369 41.1972 67.2489 41.1711 68.1608 41.1451C69.0728 41.093 70.0499 41.0408 71.0921 40.9887C72.1344 40.9106 73.346 40.8063 74.7269 40.6761C74.6227 40.9887 74.5706 41.3535 74.5706 41.7704C74.5706 42.1873 74.6227 42.513 74.7269 42.7475C73.0854 42.6954 71.4569 42.6693 69.8414 42.6693C68.226 42.6693 66.5975 42.6693 64.956 42.6693C63.7834 42.6693 62.6239 42.6693 61.4775 42.6693C60.3571 42.6693 59.2106 42.6954 58.0381 42.7475V42.3176Z" fill="#F0EEE9"/>
<path d="M52.2668 31.7651C52.2668 29.8109 51.889 28.3388 51.1333 27.3486C50.3777 26.3324 49.3355 25.8244 48.0066 25.8244C46.1827 25.8244 44.8408 26.3846 43.981 27.505C43.1472 28.6254 42.7303 30.2018 42.7303 32.2341V35.5563C42.7303 36.7288 42.7433 37.9664 42.7694 39.2692C42.8215 40.546 42.9127 41.7055 43.0429 42.7477C42.4437 42.6956 41.8574 42.6696 41.2842 42.6696C40.7109 42.6696 40.1247 42.6956 39.5254 42.7477C39.6557 41.7055 39.7338 40.546 39.7599 39.2692C39.812 37.9664 39.8381 36.7288 39.8381 35.5563V31.4915C39.8381 30.319 39.812 29.0944 39.7599 27.8176C39.7338 26.5148 39.6557 25.3032 39.5254 24.1828C40.255 24.3131 40.8412 24.3783 41.2842 24.3783C41.4926 24.3783 41.7141 24.3652 41.9486 24.3392C42.2092 24.2871 42.5088 24.2349 42.8475 24.1828C42.7694 25.2251 42.7303 26.2673 42.7303 27.3096H42.8084C43.538 26.1891 44.4109 25.3293 45.4271 24.73C46.4433 24.1047 47.6549 23.792 49.0619 23.792C49.7914 23.792 50.521 23.8962 51.2506 24.1047C52.0062 24.3131 52.6837 24.6779 53.2829 25.199C53.8822 25.6941 54.3643 26.3846 54.7291 27.2705C55.1199 28.1303 55.3153 29.2377 55.3153 30.5926C55.3153 31.713 55.2893 32.8725 55.2371 34.0711C55.185 35.2436 55.159 36.4943 55.159 37.8231V40.3636C55.159 40.7805 55.159 41.1974 55.159 41.6143C55.185 42.0051 55.2111 42.3829 55.2371 42.7477C54.716 42.6956 54.1689 42.6696 53.5956 42.6696C53.0484 42.6696 52.5143 42.6956 51.9932 42.7477C52.0453 41.3928 52.0974 39.9988 52.1495 38.5657C52.2277 37.1327 52.2668 35.6605 52.2668 34.1492V31.7651Z" fill="#F0EEE9"/>
<path d="M22.5237 17.7736C22.5237 17.2264 22.7191 16.7574 23.11 16.3665C23.5008 15.9757 23.9698 15.7803 24.517 15.7803C25.0642 15.7803 25.5332 15.9757 25.924 16.3665C26.3149 16.7574 26.5103 17.2264 26.5103 17.7736C26.5103 18.3207 26.3149 18.7897 25.924 19.1806C25.5332 19.5714 25.0642 19.7668 24.517 19.7668C23.9698 19.7668 23.5008 19.5714 23.11 19.1806C22.7191 18.7897 22.5237 18.3207 22.5237 17.7736ZM30.2233 17.7736C30.2233 17.2264 30.4187 16.7574 30.8095 16.3665C31.2004 15.9757 31.6694 15.7803 32.2166 15.7803C32.7637 15.7803 33.2327 15.9757 33.6236 16.3665C34.0144 16.7574 34.2098 17.2264 34.2098 17.7736C34.2098 18.3207 34.0144 18.7897 33.6236 19.1806C33.2327 19.5714 32.7637 19.7668 32.2166 19.7668C31.6694 19.7668 31.2004 19.5714 30.8095 19.1806C30.4187 18.7897 30.2233 18.3207 30.2233 17.7736ZM31.5912 33.0163C31.1483 33.1726 30.6271 33.3029 30.0279 33.4071C29.4546 33.5114 28.8684 33.6286 28.2691 33.7589C27.6698 33.8631 27.0705 34.0064 26.4712 34.1888C25.898 34.3712 25.3769 34.6187 24.9079 34.9314C24.4649 35.2441 24.1001 35.6349 23.8135 36.1039C23.5529 36.5729 23.4227 37.1722 23.4227 37.9018C23.4227 39.1264 23.7744 40.0514 24.4779 40.6768C25.1814 41.3021 25.9631 41.6148 26.823 41.6148C27.8131 41.6148 28.712 41.3412 29.5198 40.794C30.3535 40.2468 30.9919 39.6085 31.4349 38.8789L31.5912 33.0163ZM21.9375 26.0594C23.11 25.1735 24.1913 24.5742 25.1814 24.2615C26.1716 23.9488 27.1877 23.7925 28.23 23.7925C29.168 23.7925 30.0278 23.9358 30.8095 24.2224C31.5912 24.483 32.2556 24.8738 32.8028 25.3949C33.35 25.89 33.7799 26.5023 34.0926 27.2319C34.4053 27.9354 34.5616 28.7171 34.5616 29.5769C34.5616 31.0621 34.5355 32.5473 34.4834 34.0325C34.4313 35.4916 34.4053 37.042 34.4053 38.6835C34.4053 38.9962 34.4053 39.3349 34.4053 39.6997C34.4313 40.0384 34.4965 40.3511 34.6007 40.6377C34.7049 40.8982 34.8482 41.1197 35.0306 41.3021C35.239 41.4845 35.5387 41.5757 35.9295 41.5757C36.0598 41.5757 36.1901 41.5757 36.3204 41.5757C36.4767 41.5496 36.62 41.4975 36.7503 41.4194V42.2792C36.4637 42.4095 36.0989 42.5137 35.6559 42.5919C35.239 42.67 34.77 42.7091 34.2489 42.7091C33.4151 42.7091 32.7768 42.5007 32.3338 42.0838C31.8909 41.6408 31.6303 41.0806 31.5521 40.4032C30.6141 41.3412 29.6891 42.0317 28.7772 42.4746C27.8652 42.9176 26.7448 43.1391 25.4159 43.1391C24.7645 43.1391 24.1262 43.0479 23.5008 42.8655C22.8755 42.6831 22.3153 42.3834 21.8202 41.9665C21.3512 41.5496 20.9604 41.0546 20.6477 40.4813C20.3611 39.8821 20.2178 39.2046 20.2178 38.449C20.2178 36.8856 20.6998 35.674 21.6639 34.8142C22.654 33.9543 24.0089 33.3811 25.7286 33.0945C27.1356 32.86 28.23 32.6646 29.0117 32.5082C29.8194 32.3258 30.4057 32.1434 30.7704 31.961C31.1613 31.7786 31.3958 31.5702 31.474 31.3357C31.5521 31.0751 31.5912 30.7494 31.5912 30.3586C31.5912 29.7072 31.513 29.0819 31.3567 28.4826C31.2004 27.8833 30.9528 27.3622 30.6141 26.9192C30.2754 26.4763 29.8324 26.1245 29.2853 25.8639C28.7381 25.5773 28.0737 25.434 27.292 25.434C26.2497 25.434 25.2726 25.6685 24.3607 26.1375C23.4748 26.6065 22.8103 27.2579 22.3674 28.0917H21.9375V26.0594Z" fill="#F0EEE9"/>
<path d="M15.0719 32.8594C15.0719 31.6608 14.9156 30.6055 14.6029 29.6936C14.3163 28.7556 13.9254 27.9739 13.4304 27.3486C12.9614 26.7232 12.4012 26.2542 11.7498 25.9415C11.1244 25.6028 10.473 25.4334 9.79555 25.4334C8.98782 25.4334 8.20614 25.5898 7.45051 25.9024C6.72095 26.1891 6.08258 26.6841 5.5354 27.3876C4.98822 28.0651 4.54527 28.964 4.20654 30.0844C3.89387 31.1788 3.73754 32.5337 3.73754 34.1492C3.73754 39.3864 5.63962 42.005 9.4438 42.005C10.2515 42.005 10.9941 41.7966 11.6716 41.3797C12.349 40.9367 12.9353 40.3114 13.4304 39.5037C13.9515 38.6959 14.3554 37.7319 14.642 36.6115C14.9286 35.491 15.0719 34.2404 15.0719 32.8594ZM18.5113 32.9766C18.5113 34.4879 18.2768 35.8689 17.8078 37.1195C17.3648 38.3702 16.7395 39.4516 15.9317 40.3635C15.1501 41.2494 14.212 41.9399 13.1177 42.435C12.0494 42.904 10.8899 43.1385 9.63922 43.1385C8.38853 43.1385 7.25509 42.8779 6.23891 42.3568C5.24878 41.8096 4.49316 41.1582 3.97204 40.4026C3.03402 41.1582 2.16115 41.9138 1.35341 42.6695H0.649902C0.702014 42.0441 0.741098 41.2885 0.767154 40.4026C0.819266 39.5167 0.85835 38.5787 0.884406 37.5886C0.910462 36.5724 0.92349 35.5432 0.92349 34.5009C0.949546 33.4587 0.962574 32.4946 0.962574 31.6087V24.5345C0.962574 23.6486 0.949546 22.6845 0.92349 21.6423C0.92349 20.6001 0.910462 19.5708 0.884406 18.5547C0.85835 17.5385 0.819266 16.5744 0.767154 15.6624C0.741098 14.7244 0.702014 13.9297 0.649902 13.2783C1.37947 13.4086 1.96573 13.4737 2.40868 13.4737C2.6953 13.4737 2.99494 13.4607 3.30761 13.4347C3.62028 13.3825 3.95901 13.3304 4.3238 13.2783C4.24563 13.7994 4.18049 14.6332 4.12838 15.7797C4.07626 16.9001 4.03718 18.1638 4.01112 19.5708C3.98507 20.9518 3.95901 22.3849 3.93296 23.8701C3.9069 25.3292 3.88084 26.6581 3.85479 27.8566H3.93296C4.81886 26.4496 5.79596 25.4204 6.86425 24.769C7.93255 24.1176 9.17021 23.7919 10.5772 23.7919C11.9321 23.7919 13.1047 24.0525 14.0948 24.5736C15.0849 25.0687 15.9057 25.7331 16.5571 26.5669C17.2085 27.4007 17.6905 28.3778 18.0032 29.4982C18.3419 30.5925 18.5113 31.752 18.5113 32.9766Z" fill="#F0EEE9"/>
<path d="M245.771 25.0417C244.807 25.0417 243.986 25.2632 243.309 25.7061C242.658 26.1491 242.11 26.7093 241.668 27.3867C241.251 28.0381 240.925 28.7677 240.69 29.5754C240.482 30.3571 240.352 31.0997 240.3 31.8032C241.107 31.8293 241.941 31.8553 242.801 31.8814C243.687 31.9075 244.547 31.9205 245.38 31.9205C246.24 31.9205 247.113 31.9075 247.999 31.8814C248.885 31.8553 249.745 31.8293 250.579 31.8032C250.579 31.0997 250.514 30.3571 250.383 29.5754C250.279 28.7938 250.044 28.0642 249.68 27.3867C249.341 26.7093 248.859 26.1491 248.234 25.7061C247.608 25.2632 246.788 25.0417 245.771 25.0417ZM236.743 34.0701C236.743 30.8652 237.499 28.3508 239.01 26.5269C240.547 24.703 242.775 23.791 245.693 23.791C247.074 23.791 248.26 24.0125 249.25 24.4554C250.266 24.8723 251.113 25.4456 251.79 26.1751C252.468 26.8786 252.963 27.7124 253.275 28.6765C253.614 29.6406 253.784 30.6698 253.784 31.7641C253.784 32.0247 253.771 32.2853 253.744 32.5458C253.744 32.7803 253.731 33.0279 253.705 33.2884C252.298 33.2624 250.904 33.2363 249.523 33.2103C248.142 33.1842 246.748 33.1712 245.341 33.1712C244.482 33.1712 243.622 33.1842 242.762 33.2103C241.928 33.2363 241.081 33.2624 240.221 33.2884C240.195 33.4187 240.182 33.6141 240.182 33.8747V34.3828C240.182 35.399 240.326 36.35 240.612 37.2359C240.925 38.1218 241.368 38.8905 241.941 39.5419C242.514 40.1672 243.218 40.6753 244.052 41.0661C244.885 41.4309 245.849 41.6133 246.944 41.6133C247.465 41.6133 247.999 41.5482 248.546 41.4179C249.093 41.2616 249.628 41.0661 250.149 40.8316C250.67 40.5711 251.152 40.2714 251.595 39.9327C252.064 39.594 252.468 39.2292 252.806 38.8383L253.002 38.9556L252.767 40.8707C251.986 41.4961 251.009 42.0302 249.836 42.4732C248.69 42.9161 247.491 43.1376 246.24 43.1376C244.833 43.1376 243.544 42.9291 242.371 42.5122C241.225 42.0693 240.221 41.4439 239.362 40.6362C238.528 39.8024 237.876 38.8253 237.407 37.7049C236.964 36.5845 236.743 35.3729 236.743 34.0701Z" fill="#F0EEE9"/>
<path d="M207.43 31.4906C207.43 30.318 207.404 29.0934 207.351 27.8167C207.325 26.5139 207.247 25.3023 207.117 24.1819C207.847 24.3121 208.433 24.3773 208.876 24.3773C209.084 24.3773 209.306 24.3642 209.54 24.3382C209.801 24.2861 210.1 24.234 210.439 24.1819C210.361 25.2241 210.322 26.2663 210.322 27.3086H210.4C211.781 24.9635 213.722 23.791 216.224 23.791C216.875 23.791 217.513 23.8952 218.139 24.1037C218.764 24.2861 219.324 24.5466 219.819 24.8854C220.34 25.2241 220.783 25.641 221.148 26.1361C221.513 26.6051 221.76 27.1132 221.891 27.6603H221.969C222.594 26.4096 223.441 25.4586 224.509 24.8072C225.604 24.1297 226.854 23.791 228.261 23.791C229.121 23.791 229.916 23.9083 230.646 24.1428C231.375 24.3773 232 24.7421 232.522 25.2371C233.069 25.7322 233.486 26.3706 233.772 27.1522C234.085 27.9339 234.241 28.8719 234.241 29.9663C234.241 30.4092 234.228 30.8913 234.202 31.4124C234.176 31.9335 234.15 32.5458 234.124 33.2493C234.098 33.9268 234.072 34.7085 234.046 35.5944C234.02 36.4542 234.007 37.4574 234.007 38.6038C234.007 39.3074 234.007 39.9848 234.007 40.6362C234.033 41.2876 234.072 41.9911 234.124 42.7467C233.837 42.6946 233.551 42.6686 233.264 42.6686C232.978 42.6686 232.704 42.6686 232.443 42.6686C232.157 42.6686 231.87 42.6686 231.584 42.6686C231.297 42.6686 231.01 42.6946 230.724 42.7467C230.802 42.0953 230.88 40.7795 230.958 38.7993C231.062 36.819 231.115 34.0571 231.115 30.5135C231.115 29.8621 231.036 29.2497 230.88 28.6765C230.75 28.1033 230.528 27.6082 230.216 27.1913C229.903 26.7744 229.486 26.4487 228.965 26.2142C228.444 25.9537 227.792 25.8234 227.011 25.8234C226.073 25.8234 225.278 26.0058 224.627 26.3706C223.975 26.7353 223.467 27.1653 223.102 27.6603C222.894 27.9469 222.724 28.2336 222.594 28.5202C222.49 28.8068 222.399 29.2497 222.321 29.849C222.268 30.4223 222.229 31.243 222.203 32.3113C222.177 33.3536 222.164 34.7997 222.164 36.6496C222.164 37.7701 222.177 38.7993 222.203 39.7373C222.255 40.6492 222.308 41.6524 222.36 42.7467C221.76 42.6946 221.187 42.6686 220.64 42.6686C220.093 42.6686 219.52 42.6946 218.92 42.7467C219.051 41.3137 219.142 39.8545 219.194 38.3693C219.246 36.8841 219.272 35.425 219.272 33.9919C219.272 32.7673 219.259 31.8163 219.233 31.1388C219.233 30.4353 219.207 29.8881 219.155 29.4973C219.103 29.0804 219.025 28.7417 218.92 28.4811C218.842 28.2205 218.725 27.9339 218.569 27.6212C218.282 27.1262 217.826 26.7093 217.201 26.3706C216.601 26.0058 215.976 25.8234 215.325 25.8234C213.605 25.8234 212.341 26.3836 211.533 27.504C210.726 28.6244 210.322 30.2008 210.322 32.2332V35.5553C210.322 36.7278 210.335 37.9655 210.361 39.2683C210.413 40.545 210.504 41.7045 210.635 42.7467C210.035 42.6946 209.449 42.6686 208.876 42.6686C208.302 42.6686 207.716 42.6946 207.117 42.7467C207.247 41.7045 207.325 40.545 207.351 39.2683C207.404 37.9655 207.43 36.7278 207.43 35.5553V31.4906Z" fill="#F0EEE9"/>
<path d="M199.053 24.5335C199.053 23.6476 199.04 22.6836 199.014 21.6413C199.014 20.5991 199.001 19.5699 198.975 18.5537C198.949 17.5375 198.91 16.5734 198.857 15.6615C198.831 14.7234 198.792 13.9287 198.74 13.2773C199.47 13.4076 200.056 13.4728 200.499 13.4728C200.942 13.4728 201.528 13.4076 202.258 13.2773C202.206 13.9287 202.154 14.7234 202.101 15.6615C202.075 16.5734 202.049 17.5375 202.023 18.5537C201.997 19.5699 201.971 20.5991 201.945 21.6413C201.945 22.6836 201.945 23.6476 201.945 24.5335V31.6077C201.945 32.4936 201.945 33.4577 201.945 34.4999C201.971 35.5422 201.997 36.5714 202.023 37.5876C202.049 38.6038 202.075 39.5678 202.101 40.4798C202.154 41.3918 202.206 42.1474 202.258 42.7467C201.659 42.6945 201.072 42.6685 200.499 42.6685C199.926 42.6685 199.34 42.6945 198.74 42.7467C198.792 42.1474 198.831 41.3918 198.857 40.4798C198.91 39.5678 198.949 38.6038 198.975 37.5876C199.001 36.5714 199.014 35.5422 199.014 34.4999C199.04 33.4577 199.053 32.4936 199.053 31.6077V24.5335Z" fill="#F0EEE9"/>
<path d="M177.883 36.8448C177.883 35.4639 177.896 34.2914 177.922 33.3273C177.974 32.3372 178 31.3601 178 30.396C178 29.484 177.987 28.4939 177.961 27.4256C177.961 26.3573 177.948 25.276 177.922 24.1816C178.573 24.3119 179.12 24.3771 179.563 24.3771C179.98 24.3771 180.514 24.3119 181.166 24.1816C181.036 25.745 180.931 27.4647 180.853 29.3407C180.801 31.1907 180.775 33.0928 180.775 35.047C180.775 36.4019 180.892 37.4441 181.127 38.1737C181.361 38.8772 181.648 39.4114 181.987 39.7761C182.351 40.193 182.807 40.5448 183.355 40.8314C183.928 41.092 184.592 41.2223 185.348 41.2223C186.442 41.2223 187.354 40.9878 188.084 40.5187C188.813 40.0237 189.347 39.4244 189.686 38.7209C189.869 38.2779 190.012 37.9001 190.116 37.5874C190.22 37.2748 190.298 36.8579 190.351 36.3368C190.429 35.8156 190.468 35.1121 190.468 34.2262C190.494 33.3403 190.507 32.1287 190.507 30.5914V27.3084C190.507 26.7351 190.494 26.188 190.468 25.6668C190.468 25.1457 190.455 24.6506 190.429 24.1816C190.715 24.2338 190.989 24.2859 191.25 24.338C191.51 24.364 191.784 24.3771 192.07 24.3771C192.357 24.3771 192.63 24.364 192.891 24.338C193.152 24.2859 193.412 24.2338 193.673 24.1816C193.542 26.214 193.464 28.1812 193.438 30.0833C193.412 31.9594 193.399 33.9526 193.399 36.0632C193.399 37.2357 193.412 38.3822 193.438 39.5026C193.464 40.623 193.503 41.7043 193.555 42.7465C193.034 42.6944 192.526 42.6684 192.031 42.6684C191.536 42.6684 191.028 42.6944 190.507 42.7465C190.533 42.512 190.546 42.2645 190.546 42.0039C190.572 41.7434 190.585 41.4698 190.585 41.1832V39.5026H190.507C189.829 40.7532 188.957 41.6782 187.888 42.2775C186.82 42.8508 185.661 43.1374 184.41 43.1374C182.377 43.1374 180.775 42.6032 179.603 41.5349C178.456 40.4406 177.883 38.8772 177.883 36.8448Z" fill="#F0EEE9"/>
<path d="M158.041 24.5335C158.041 23.6476 158.028 22.6836 158.002 21.6413C158.002 20.5991 157.989 19.5699 157.963 18.5537C157.937 17.5375 157.898 16.5734 157.846 15.6615C157.82 14.7234 157.781 13.9287 157.729 13.2773C158.458 13.4076 159.044 13.4728 159.487 13.4728C159.93 13.4728 160.517 13.4076 161.246 13.2773C161.194 13.9287 161.142 14.7104 161.09 15.6224C161.064 16.5343 161.038 17.4984 161.012 18.5146C160.986 19.5047 160.959 20.5079 160.933 21.5241C160.933 22.5402 160.933 23.4783 160.933 24.3381V27.3085H161.012C161.741 26.1881 162.614 25.3282 163.63 24.7289C164.646 24.1036 165.858 23.7909 167.265 23.7909C167.995 23.7909 168.724 23.8952 169.454 24.1036C170.209 24.3121 170.887 24.6768 171.486 25.198C172.085 25.693 172.567 26.3835 172.932 27.2694C173.323 28.1293 173.518 29.2366 173.518 30.5915C173.518 31.712 173.492 32.8714 173.44 34.07C173.388 35.2425 173.362 36.4932 173.362 37.8221V40.3625C173.362 40.7794 173.362 41.1963 173.362 41.6132C173.388 42.0041 173.414 42.3819 173.44 42.7467C172.919 42.6945 172.372 42.6685 171.799 42.6685C171.252 42.6685 170.717 42.6945 170.196 42.7467C170.248 41.3918 170.301 39.9978 170.353 38.5647C170.431 37.1316 170.47 35.6594 170.47 34.1482V31.7641C170.47 29.8099 170.092 28.3377 169.336 27.3476C168.581 26.3314 167.539 25.8233 166.21 25.8233C164.386 25.8233 163.044 26.3835 162.184 27.5039C161.35 28.6243 160.933 30.2007 160.933 32.2331C160.933 32.9626 160.933 33.8095 160.933 34.7735C160.959 35.7376 160.986 36.7147 161.012 37.7048C161.038 38.6689 161.064 39.6069 161.09 40.5189C161.142 41.4308 161.194 42.1734 161.246 42.7467C160.647 42.6945 160.061 42.6685 159.487 42.6685C158.914 42.6685 158.328 42.6945 157.729 42.7467C157.781 42.1474 157.82 41.3918 157.846 40.4798C157.898 39.5678 157.937 38.6038 157.963 37.5876C157.989 36.5714 158.002 35.5422 158.002 34.4999C158.028 33.4577 158.041 32.4936 158.041 31.6077V24.5335Z" fill="#F0EEE9"/>
<path fill-rule="evenodd" clip-rule="evenodd" d="M142.544 50.2676L142.544 11.1836L144.987 11.1836L144.987 50.2676L142.544 50.2676Z" fill="#7C7262"/>
</g>
<defs>
<clipPath id="clip0_29_258">
<rect width="294.462" height="60" fill="white" transform="translate(0.269287 0.5)"/>
</clipPath>
</defs>
</svg>
