<?xml version="1.0" standalone="no"?>
<!DOCTYPE svg PUBLIC "-//W3C//DTD SVG 20010904//EN"
 "http://www.w3.org/TR/2001/REC-SVG-20010904/DTD/svg10.dtd">
<svg version="1.0" xmlns="http://www.w3.org/2000/svg"
 width="300.000000pt" height="41.000000pt" viewBox="0 0 300.000000 41.000000"
 preserveAspectRatio="xMidYMid meet">
<metadata>
Created by potrace 1.10, written by Peter Selinger 2001-2011
</metadata>
<g transform="translate(0.000000,41.000000) scale(0.100000,-0.100000)"
fill="#000000" stroke="none">
<path d="M860 400 c-14 -4 -38 -11 -55 -15 -29 -7 -30 -7 -7 -18 21 -10 22
-14 22 -170 0 -140 -2 -161 -17 -173 -16 -12 -9 -13 46 -14 49 0 61 3 54 13
-14 16 -23 96 -13 102 4 3 24 -16 43 -42 26 -35 33 -51 25 -60 -8 -10 3 -13
53 -13 55 1 61 3 47 14 -9 7 -38 41 -63 75 l-46 62 43 39 c24 22 49 39 56 40
6 0 12 4 12 8 0 4 -27 8 -60 7 -33 0 -60 -3 -60 -7 0 -5 7 -8 15 -8 8 0 15 -4
15 -8 0 -16 -63 -93 -73 -89 -7 2 -9 50 -8 135 1 73 1 132 -1 131 -2 0 -14 -4
-28 -9z m0 -124 c0 -52 4 -106 9 -119 7 -17 5 -40 -4 -73 -7 -27 -14 -44 -16
-39 -6 25 -3 325 3 325 5 0 8 -42 8 -94z"/>
<path d="M100 348 c0 -4 10 -8 23 -10 21 -3 22 -6 25 -141 l3 -137 -28 -26
-28 -26 -6 34 c-7 47 -16 58 -45 58 -49 0 -48 -79 2 -89 17 -3 17 -1 -4 21
-27 30 -28 38 -2 38 13 0 25 -12 34 -35 14 -32 18 -35 43 -29 98 21 107 35
113 199 5 125 6 130 28 133 12 2 22 6 22 10 0 4 -40 7 -90 7 -49 0 -90 -3 -90
-7z m100 -146 c0 -88 -4 -123 -15 -138 -13 -17 -14 -5 -15 119 0 115 2 137 15
137 12 0 15 -20 15 -118z"/>
<path d="M1942 179 c1 -96 4 -139 5 -96 l4 77 49 0 49 0 41 -75 c23 -41 45
-75 50 -75 5 0 -9 34 -31 75 -37 68 -39 76 -22 81 66 24 87 108 37 155 -22 20
-38 24 -105 28 l-79 3 2 -173z m168 131 c44 -44 13 -129 -47 -131 -16 0 -46
-1 -68 -2 l-40 -2 -3 78 -3 77 71 0 c57 0 74 -4 90 -20z"/>
<path d="M2254 251 c-55 -33 -71 -143 -30 -205 41 -63 152 -51 181 18 31 73
10 163 -44 190 -40 21 -69 20 -107 -3z m120 -32 c21 -24 26 -41 26 -84 0 -72
-34 -115 -90 -115 -55 0 -90 43 -90 111 0 81 29 118 92 119 28 0 42 -7 62 -31z"/>
<path d="M2852 254 c-33 -23 -52 -67 -52 -119 0 -89 54 -143 130 -130 22 4 45
14 52 23 11 14 10 15 -7 7 -11 -5 -38 -10 -60 -13 -52 -5 -83 19 -92 71 l-6
37 93 0 93 0 -6 43 c-10 76 -89 121 -145 81z m109 -34 c10 -14 20 -35 21 -48
3 -23 0 -23 -80 -25 -73 -2 -82 0 -82 16 0 24 26 74 42 81 31 12 81 0 99 -24z"/>
<path d="M335 251 c-56 -23 -71 -91 -20 -91 27 0 44 35 26 53 -18 18 -13 27
14 27 36 0 62 -31 61 -71 -1 -33 -3 -34 -51 -41 -50 -7 -95 -41 -95 -73 0 -39
74 -60 123 -34 16 9 22 9 25 0 7 -22 33 -12 28 12 -16 74 -17 119 -4 115 8 -3
13 -22 14 -49 3 -92 1 -89 37 -88 29 0 30 1 10 9 -22 9 -23 15 -23 105 0 82
-3 98 -20 115 -21 21 -86 27 -125 11z m82 -167 c-1 -27 -7 -39 -24 -47 -25
-11 -53 4 -53 31 0 24 30 52 56 52 19 0 22 -5 21 -36z"/>
<path d="M604 241 c-47 -29 -64 -59 -64 -114 0 -42 5 -54 34 -83 30 -30 40
-34 85 -34 54 0 116 24 106 40 -4 7 -13 6 -25 0 -10 -5 -34 -10 -54 -10 -49 0
-76 36 -76 105 0 56 20 85 69 100 22 7 24 5 18 -23 -4 -21 -1 -36 9 -47 19
-19 29 -19 48 1 23 22 20 40 -10 63 -34 27 -98 27 -140 2z m0 -179 c4 -7 3
-12 -3 -12 -21 0 -36 53 -31 105 1 11 7 -3 14 -30 7 -28 16 -56 20 -63z"/>
<path d="M1128 245 c-30 -17 -44 -51 -33 -85 4 -12 31 -33 65 -50 32 -16 61
-34 65 -40 11 -17 -15 -50 -39 -50 -22 0 -76 43 -76 61 0 5 -6 9 -13 9 -10 0
-12 -10 -8 -37 6 -35 9 -38 51 -45 59 -10 106 6 125 42 23 45 6 75 -62 107
-48 23 -58 32 -58 53 0 20 6 26 29 28 22 3 35 -4 57 -30 l29 -33 -2 40 -3 40
-50 2 c-30 2 -61 -3 -77 -12z"/>
<path d="M1381 247 c-42 -21 -66 -64 -66 -117 0 -62 27 -100 84 -119 37 -12
48 -11 88 4 36 14 49 25 64 59 10 22 19 49 19 58 0 37 -33 99 -61 113 -34 18
-95 19 -128 2z m79 -7 c42 -22 51 -161 13 -202 -21 -23 -60 -23 -72 1 -30 55
-24 158 10 192 22 22 24 22 49 9z m79 -110 c0 -14 -4 -32 -9 -40 -7 -11 -10 3
-9 45 0 43 3 54 9 40 5 -11 9 -31 9 -45z m-179 -6 c0 -27 -4 -43 -10 -39 -17
11 -11 85 7 85 2 0 3 -21 3 -46z"/>
<path d="M1633 253 c-35 -4 -44 -20 -18 -29 24 -9 22 -182 -2 -200 -16 -12 -8
-13 52 -13 52 0 66 2 53 10 -15 8 -18 25 -18 99 0 89 0 90 27 96 47 12 58 -4
61 -97 2 -70 0 -86 -14 -96 -15 -11 -7 -13 52 -12 54 0 64 3 48 10 -19 10 -20
17 -16 90 5 87 -8 134 -40 145 -27 8 -84 -4 -98 -21 -18 -21 -33 -18 -27 5 5
21 6 21 -60 13z m42 -93 c-1 -33 -3 -75 -4 -92 -3 -29 -4 -30 -9 -10 -9 29 -3
162 7 162 5 0 7 -27 6 -60z"/>
<path d="M2460 253 c0 -22 66 -243 72 -243 4 0 22 47 40 105 18 58 35 105 38
105 3 0 20 -48 38 -105 18 -58 36 -105 41 -105 8 0 73 242 66 249 -9 9 -15 -7
-36 -95 -32 -137 -30 -136 -68 -14 -19 60 -38 110 -42 110 -7 0 -46 -116 -65
-194 -9 -38 -16 -24 -43 97 -13 53 -27 97 -32 97 -5 0 -9 -3 -9 -7z"/>
</g>
</svg>
